<?xml version="1.0" encoding="UTF-8"?>
<!-- Created with Inkscape (http://www.inkscape.org/) -->
<svg width="64" height="28" version="1.1" viewBox="0 0 16.933 7.4085" xmlns="http://www.w3.org/2000/svg">
 <g transform="translate(3.0594 .14822)">
  <g transform="rotate(5.2393,6.202,-4.461)">
   <text transform="rotate(-5.2393)" x="2.7374635" y="11.686788" fill="#000000" font-family="sans-serif" font-size="10.583px" stroke-width=".26458" style="line-height:1.25" xml:space="preserve"><tspan x="2.7374635" y="11.686788" stroke-width=".26458"/></text>
  </g>
 </g>
 <g transform="rotate(90 7.8648 6.8943)">
  <g transform="rotate(-90)" stroke-width=".26459" aria-label="SK">
   <g fill="#14b8a6">
    <path d="m-5.2762 2.1968q0 0.50167-0.34381 0.85639-0.33946 0.35472-0.81818 0.35472-0.47872 0-0.81818-0.35472-0.33946-0.35472-0.33946-0.85639 0-0.11655 0.034816-0.30404-0.19584-0.02027-0.24807-0.02027-0.66151 0-0.66151 0.64356 0 0.32938 0.38733 1.4746 0.39168 1.1452 0.39168 1.7939 0 1.3885-1.3187 2.0827-0.98356 0.51181-2.3022 0.51181-1.2055 0-2.1368-0.39019-1.31-0.54728-1.31-1.6824 0-1.652 2.4154-1.652h1.6581l0.3177 0.81078h-1.2926q-0.48743 0-0.84865 0.19763-0.47002 0.25844-0.47002 0.76518 0 0.57262 0.64845 0.89693 0.50048 0.2483 1.0706 0.2483 0.72244 0 1.2055-0.36992 0.56141-0.42566 0.56141-1.2212 0-0.54728-0.35687-1.5709-0.35687-1.0236-0.35687-1.5912 0-1.8496 2.7026-1.8496h1.075q0.44391 0 0.79207 0.34965 0.36122 0.36992 0.36122 0.87666z" stroke-width=".24044"/>
    <path d="m2.1745 0.9705-3.7437 3.684h0.34782q0.64073 0 0.64073 0.62329 0 0.20776-0.086956 0.47634l-0.48512 1.5354h1.8993q-0.21052 0.81078-1.3318 0.81078h-1.6018q-0.65903 0-0.65903-0.54221 0-0.12668 0.041189-0.26857l0.60869-2.0219-2.389 2.3563q-0.48512 0.47634-1.1167 0.47634h-0.76887l1.8673-5.8528h-2.5583l0.70022-1.277h2.8512q0.7826 0 0.7826 0.65369 0 0.22297-0.091533 0.51687l-1.1121 3.6536 4.778-4.8242z" stroke-width=".24657"/>
   </g>
  </g>
 </g>
</svg>
